# xmcd
# 
# Track frame offsets:
#     150
#     19092
#     32102
#     55450
#     68727
#     80090
#     91212
#     103625
#     124104
#     138080
#     152302
#     174602
#     205135
#     219350
#     242067
# 
# Disc length: 3437
# 
# Revision: 6
# Processed by: cddbd v1.5.2PL0 Copyright (c) Steve Scherf et al.
# Submitted via: fre:ac v1.0.17
# 
DISCID=c50d6b0f
DTITLE=Various Artist - Blues Story - CD 01 (Les rois du blues)
DYEAR=1998
DGENRE=Blues
TTITLE0=The Allman Brothers Band - Statesboro Blues
TTITLE1=J.J. Cale - Cocaïne
TTITLE2=B.B. King - The Thrill Is Gone
TTITLE3=Muddy Waters - Mannish Boy
TTITLE4=John Lee Hooker - Boom Boom
TTITLE5=Howlin' Wolf - The Red Rooster
TTITLE6=Elmore James - Dust My Broom
TTITLE7=Lonnie Mack and Stevie Ray Vaughan - If You Have To Know
TTITLE8=Etta James - I Just Want To Make Love To You
TTITLE9=Albert Collins - Ice Pick
TTITLE10=Canned Heat - On The Road Again
TTITLE11=Rory Gallagher - Bullfrog Blues
TTITLE12=Taj Mahal and Eric Clapton - Here In The Dark
TTITLE13=Johnny Winter - Murdering Blues
TTITLE14=Screamin' Jay Hawkins - I Put a Spell On You
EXTD=YEAR: 1998
EXTT0=
EXTT1=
EXTT2=
EXTT3=
EXTT4=
EXTT5=
EXTT6=
EXTT7=
EXTT8=
EXTT9=
EXTT10=
EXTT11=
EXTT12=
EXTT13=
EXTT14=
PLAYORDER=
